<svg width="234" height="263" viewBox="0 0 234 263" fill="none" xmlns="http://www.w3.org/2000/svg">
<path d="M223.868 58.1908L127.132 2.41015C121.559 -0.803383 112.439 -0.803383 106.867 2.41015L10.1324 58.1908C4.55933 61.4044 0 69.2923 0 75.7194V187.281C0.433561 194.766 4.26155 200.965 10.1319 204.809L106.868 260.589C112.44 263.804 121.56 263.804 127.132 260.589L223.868 204.809C230.167 200.625 233.753 194.326 234 187.281V75.7194C233.774 68.9569 229.719 62.1363 223.868 58.1908H223.868ZM38.9999 131.501C38.5417 55.4309 140.555 21.8418 184.547 92.5242L150.791 112.033C130.413 78.371 79.8159 90.4078 77.9998 131.501C78.545 169.373 128.275 186.966 150.793 150.965L184.549 170.474C145.779 237.694 40.9548 213.509 39.0004 131.501H38.9999ZM195 135.828H186.332V144.484H177.667V135.828H169V127.172H177.667V118.517H186.333V127.172H195V135.828H195ZM227.5 135.828H218.833V144.484H210.167V135.828H201.5V127.172H210.168V118.517H218.833V127.172H227.5V135.828H227.5Z" fill="#7622FF"/>
</svg>
