<svg width="261" height="262" viewBox="0 0 261 262" fill="none" xmlns="http://www.w3.org/2000/svg">
<path d="M10.1319 250.889L97.4989 163.522M207.518 124.671L181.365 203.128C180.948 204.386 180.233 205.524 179.282 206.447C178.331 207.369 177.171 208.049 175.901 208.427L15.5821 256.078C14.1377 256.507 12.6034 256.532 11.146 256.149C9.6887 255.767 8.36418 254.992 7.31662 253.909C6.26907 252.826 5.53862 251.477 5.20476 250.007C4.8709 248.538 4.94643 247.006 5.42312 245.576L57.4809 89.4305C57.8539 88.3093 58.4639 87.2816 59.2693 86.417C60.0746 85.5524 61.0566 84.8712 62.1485 84.4196L136.103 53.9702C137.606 53.3493 139.26 53.1874 140.855 53.505C142.451 53.8226 143.916 54.6055 145.067 55.7549L205.527 116.228C206.611 117.311 207.372 118.675 207.724 120.166C208.075 121.658 208.004 123.218 207.518 124.671V124.671Z" stroke="#7622FF" stroke-width="10" stroke-linecap="round" stroke-linejoin="round"/>
<path d="M209.138 119.838L247.961 81.0009C253.109 75.852 256 68.8696 256 61.5891C256 54.3086 253.109 47.3261 247.961 42.1773L218.857 13.0458C216.308 10.495 213.28 8.47159 209.948 7.09107C206.617 5.71056 203.045 5 199.439 5C195.832 5 192.261 5.71056 188.929 7.09107C185.597 8.47159 182.57 10.495 180.02 13.0458L141.196 51.8832M126.617 134.39C124.704 132.478 122.433 130.962 119.935 129.928C117.436 128.893 114.758 128.361 112.053 128.362C109.349 128.362 106.671 128.896 104.173 129.931C101.674 130.967 99.4042 132.484 97.4923 134.397C95.5804 136.31 94.064 138.581 93.0296 141.079C91.9953 143.578 91.4632 146.256 91.4639 148.961C91.4645 151.665 91.9978 154.343 93.0334 156.842C94.0689 159.34 95.5864 161.61 97.4992 163.522C101.362 167.383 106.601 169.551 112.063 169.55C117.525 169.549 122.763 167.378 126.624 163.515C130.485 159.652 132.654 154.413 132.652 148.951C132.651 143.489 130.48 138.252 126.617 134.39Z" stroke="#7622FF" stroke-width="10" stroke-linecap="round" stroke-linejoin="round"/>
</svg>
